<svg width="20" height="20" viewBox="0 0 20 20" fill="none" xmlns="http://www.w3.org/2000/svg">
<path d="M0.241324 1.40654C-0.0804416 1.08477 -0.0804411 0.563089 0.241324 0.241324C0.563089 -0.0804413 1.08477 -0.0804413 1.40654 0.241324L19.7587 18.5935C20.0804 18.9152 20.0804 19.4369 19.7587 19.7587C19.4369 20.0804 18.9152 20.0804 18.5935 19.7587L0.241324 1.40654Z" fill="white" style="fill:white;fill-opacity:1;"/>
<path d="M18.5935 0.241324C18.9152 -0.0804415 19.4369 -0.080441 19.7587 0.241324C20.0804 0.563089 20.0804 1.08477 19.7587 1.40654L1.40654 19.7587C1.08477 20.0804 0.56309 20.0804 0.241325 19.7587C-0.0804401 19.4369 -0.0804401 18.9152 0.241325 18.5935L18.5935 0.241324Z" fill="white" style="fill:white;fill-opacity:1;"/>
</svg>
