<svg width="36" height="30" viewBox="0 0 36 30" fill="#A9A9A9" xmlns="http://www.w3.org/2000/svg">
<path d="M20.4919 2.49235C20.4919 3.86883 19.376 4.98469 17.9996 4.98469C16.6231 4.98469 15.5072 3.86883 15.5072 2.49235C15.5072 1.11586 16.6231 0 17.9996 0C19.376 0 20.4919 1.11586 20.4919 2.49235Z" />
<path d="M7.2452 17.0009C7.19475 17.5508 7.64732 18 8.1996 18H27.7999C28.3522 18 28.8048 17.5508 28.7543 17.0009C28.2501 11.5044 23.6277 7.19922 17.9998 7.19922C12.3719 7.19922 7.74938 11.5044 7.2452 17.0009Z" />
<path d="M3.9847 18C4.537 18 5.00331 17.5347 4.78735 17.0264C4.40812 16.1338 3.52337 15.5078 2.49241 15.5078C1.46145 15.5078 0.576699 16.1338 0.197476 17.0264C-0.0184916 17.5347 0.44782 18 1.00013 18H3.9847Z" />
<path d="M35.0003 18C35.5526 18 36.0189 17.5347 35.803 17.0264C35.4238 16.1338 34.539 15.5078 33.508 15.5078C32.4771 15.5078 31.5923 16.1338 31.2131 17.0264C30.9971 17.5347 31.4634 18 32.0158 18H35.0003Z" />
<path d="M8.79721 5.2689C9.77053 6.24222 9.77053 7.82028 8.79721 8.7936C7.82389 9.76692 6.24582 9.76692 5.2725 8.7936C4.29918 7.82028 4.29918 6.24222 5.2725 5.2689C6.24582 4.29557 7.82389 4.29557 8.79721 5.2689Z" />
<path d="M30.7276 8.79878C29.7543 9.7721 28.1762 9.7721 27.2029 8.79878C26.2295 7.82546 26.2295 6.24739 27.2029 5.27407C28.1762 4.30075 29.7543 4.30075 30.7276 5.27407C31.7009 6.24739 31.7009 7.82546 30.7276 8.79878Z" />
<path d="M4.00007 21C4.00007 20.4477 4.44778 20 5.00007 20H31.0001C31.5524 20 32.0001 20.4477 32.0001 21C32.0001 21.5523 31.5524 22 31.0001 22H5.00007C4.44778 22 4.00007 21.5523 4.00007 21Z" />
<path d="M8.00007 25C8.00007 24.4477 8.44778 24 9.00007 24H27.0001C27.5524 24 28.0001 24.4477 28.0001 25C28.0001 25.5523 27.5524 26 27.0001 26H9.00007C8.44778 26 8.00007 25.5523 8.00007 25Z" />
<path d="M14.0001 29C14.0001 28.4477 14.4478 28 15.0001 28H21.0001C21.5524 28 22.0001 28.4477 22.0001 29C22.0001 29.5523 21.5524 30 21.0001 30H15.0001C14.4478 30 14.0001 29.5523 14.0001 29Z" />
</svg>
