<svg width="18" height="20" viewBox="0 0 18 20" fill="none" xmlns="http://www.w3.org/2000/svg">
<path d="M6.97393 15.1722C6.97393 15.1722 1.48658 11.0768 0.500932 7.12176C-0.48472 3.16673 3.17029 1.0964 3.17029 1.0964C3.17029 1.0964 6.79133 -1.03036 9.88866 1.74445C12.0147 3.64862 11.5504 5.91437 11.6543 6.45335C11.7582 6.99234 11.9797 7.25018 12.2774 6.01073C12.5601 4.83427 13.3788 3.39431 14.301 3.33999C15.3611 3.27755 15.5461 4.36848 15.4681 5.21973C15.3902 6.07098 14.7777 8.24094 14.4013 9.61993C14.1928 10.2512 14.1485 10.9236 14.2728 11.576C14.2727 11.576 11.0648 15.9634 6.97393 15.1722Z" fill="#FFB340" style="fill:#FFB340;fill:color(display-p3 1.0000 0.7020 0.2510);fill-opacity:1;"/>
<path d="M8.30166 14.3358C6.351 13.5488 2.85596 10.2311 2.01832 7.11095C1.18068 3.99077 4.13587 2.33162 4.13587 2.33162C4.13587 2.33162 7.41037 0.462055 9.565 2.83624C10.7354 4.14615 11.2105 6.0414 11.293 6.46875C11.3756 6.8961 11.6058 7.45056 12.1121 7.16382C12.4336 6.99264 12.5073 6.18127 12.8162 5.36987C13.1006 4.62304 13.6159 3.86876 13.9534 3.77974C14.5148 3.62747 15.0146 3.84879 14.6064 5.33963C14.1983 6.83045 13.9551 7.87408 13.6563 8.96807C13.4722 9.7951 13.3651 10.6368 13.3362 11.4829C13.3362 11.4829 10.2515 15.1232 8.30166 14.3358Z" fill="#FCEB00" style="fill:#FCEB00;fill:color(display-p3 0.9882 0.9216 0.0000);fill-opacity:1;"/>
<path d="M16.831 15.6081C15.8107 16.4426 14.7317 17.2055 13.602 17.8912C12.4461 18.5359 11.2308 19.0723 9.97221 19.4932C9.03412 19.9069 7.92911 19.5567 7.41497 18.6828L6.79406 17.6277C6.24069 16.6873 6.56913 15.4848 7.52763 14.9419C7.5759 14.9145 7.6253 14.8892 7.6757 14.8659C7.6757 14.8659 9.4029 14.1551 10.9446 13.3283C11.9861 12.7486 12.9738 12.0805 13.8964 11.3317C14.8076 10.7152 16.0555 10.9402 16.6838 11.8342C16.7142 11.8774 16.7428 11.9218 16.7696 11.9673L17.3949 13.0298C17.9092 13.9038 17.6656 15.0181 16.831 15.6081Z" fill="#096D5F" style="fill:#096D5F;fill:color(display-p3 0.0353 0.4275 0.3725);fill-opacity:1;"/>
<path d="M7.6829 18.5647C7.66202 18.5292 12.0523 19.4005 17.1176 12.7475C18.3026 15.6978 15.0612 17.1759 13.7025 17.8982C12.3439 18.6205 9.37081 20.7775 7.6829 18.5647Z" fill="#34584D" style="fill:#34584D;fill:color(display-p3 0.2039 0.3451 0.3020);fill-opacity:1;"/>
<path fill-rule="evenodd" clip-rule="evenodd" d="M0.177197 7.20009C1.09856 10.8973 5.70794 14.612 6.62218 15.319C6.1121 16.0278 6.03479 16.9925 6.50515 17.7918L7.12603 18.8469C7.72817 19.8704 9.01079 20.2768 10.0803 19.8037C11.3548 19.3777 12.5953 18.8302 13.7781 18.1703C14.9176 17.4781 16.0064 16.7085 17.0364 15.8672C18.0064 15.1743 18.285 13.8865 17.6842 12.8663L17.059 11.8037C17.0278 11.7508 16.9947 11.699 16.9591 11.6482C16.4082 10.8646 15.4466 10.5246 14.5416 10.7157C14.5543 10.3763 14.6153 10.0365 14.7244 9.70507L14.8468 9.2588C15.2404 7.82373 15.7291 6.04188 15.8013 5.24938C15.845 4.77326 15.842 3.8976 15.3317 3.38184C15.0685 3.11577 14.7054 2.98832 14.2816 3.01314C13.1024 3.08288 12.2496 4.77496 11.969 5.87064C11.964 4.90476 11.8796 3.08391 10.1146 1.50282C6.97544 -1.3092 3.29017 0.66019 3.01944 0.804869C3.01031 0.809747 3.00506 0.812551 3.00385 0.813027C2.96515 0.834947 -0.856065 3.05411 0.177197 7.20009ZM8.24688 15.5912C7.93313 15.6058 7.61181 15.5948 7.28394 15.5538C6.81763 16.0671 6.71454 16.8369 7.08365 17.4641L7.70453 18.5192C7.91055 18.8715 8.24302 19.136 8.63703 19.2608C9.03105 19.3857 9.45835 19.362 9.83553 19.1944C9.97711 19.1469 10.1179 19.0981 10.2579 19.048C8.97496 17.682 8.45625 16.4155 8.24688 15.5912ZM8.79135 14.8704C8.78547 14.8217 8.78155 14.7801 8.77894 14.7463C9.14142 14.5841 9.57649 14.3839 10.0332 14.1617C10.052 14.2586 10.076 14.3678 10.1067 14.488C9.69001 14.6607 9.24988 14.7948 8.79135 14.8704ZM8.9232 15.52C9.13778 16.2976 9.6603 17.5059 10.9325 18.7938C11.3853 18.6144 11.8295 18.4207 12.2648 18.2127C11.1817 17.0665 10.6085 15.9634 10.3054 15.1296C9.86862 15.3045 9.40652 15.4407 8.9232 15.52ZM10.9199 14.8513C11.2043 15.6529 11.7686 16.7617 12.886 17.9033C13.0715 17.807 13.2552 17.7081 13.4373 17.6065C13.627 17.4913 13.8159 17.3734 14.0037 17.253C13.5471 15.6424 12.8319 14.6172 12.2664 14.0127C11.9604 14.2399 11.6284 14.4607 11.2735 14.6618C11.158 14.7272 11.0401 14.7905 10.9199 14.8513ZM15.949 15.8862C15.5046 16.2274 15.0492 16.5558 14.5861 16.8692C14.1035 15.2868 13.3852 14.2452 12.7885 13.5995C13.2576 13.205 13.6451 12.8151 13.936 12.4965C14.505 13.009 15.394 14.0509 15.949 15.8862ZM16.5089 15.4449C16.5451 15.4155 16.5812 15.3861 16.6173 15.3567L16.636 15.3424C17.3346 14.8488 17.5364 13.9252 17.1057 13.194L16.4805 12.1315C16.4581 12.0935 16.4344 12.0563 16.4089 12.0201C15.9928 11.4281 15.2465 11.1886 14.5777 11.3745C14.5847 11.4219 14.5928 11.4693 14.6018 11.5165L14.6277 11.654L14.5446 11.7676C14.5285 11.7897 14.4685 11.8707 14.3682 11.9948C14.9848 12.5436 15.9037 13.6103 16.5089 15.4449ZM13.2646 12.2346C13.0035 12.5055 12.6794 12.8165 12.3022 13.1287C12.2462 13.0805 12.193 13.0369 12.1433 12.9976C12.5268 12.7543 12.9015 12.4994 13.2646 12.2346ZM11.1096 13.6136C11.2527 13.5337 11.3949 13.4521 11.5362 13.3688C11.5968 13.4107 11.6753 13.4683 11.7674 13.5435C11.4469 13.7755 11.0985 13.9985 10.7264 14.1955C10.6941 14.0565 10.6728 13.94 10.6589 13.8497C10.8099 13.7724 10.9607 13.6935 11.1096 13.6136ZM0.825983 7.04431C1.70371 10.5664 6.36775 14.2865 7.08478 14.8415C7.17109 14.775 7.2632 14.7137 7.36093 14.6584C7.41715 14.6265 7.47451 14.597 7.5332 14.5696L7.54063 14.5666C7.66798 14.5136 9.32258 13.825 10.7846 13.0409C11.8003 12.4733 12.7784 11.8144 13.6837 11.0795C13.7455 11.0379 13.8085 10.9996 13.8724 10.9644C13.859 10.4757 13.9302 9.98546 14.0842 9.51941L14.1993 9.0971C14.5662 7.7597 15.0687 5.92811 15.1364 5.19076C15.192 4.58003 15.0858 4.07445 14.8523 3.8383C14.7251 3.70987 14.5517 3.65385 14.3216 3.66741C13.6315 3.70805 12.876 4.95112 12.6032 6.08632C12.4277 6.81594 12.2519 7.23719 11.8684 7.22867C11.4633 7.21987 11.3642 6.70867 11.3267 6.5154C11.3024 6.38928 11.302 6.23049 11.3015 6.01239L11.3015 6.00555C11.3001 5.11225 11.2975 3.44969 9.66416 1.98668C6.79199 -0.586138 3.48525 1.29505 3.34193 1.37828C3.19798 1.46036 -0.0867147 3.3819 0.825983 7.04431Z" fill="#2C2626" style="fill:#2C2626;fill:color(display-p3 0.1725 0.1490 0.1490);fill-opacity:1;"/>
</svg>
