<svg width="53" height="50" viewBox="0 0 53 50" fill="none" xmlns="http://www.w3.org/2000/svg">
<path d="M13.6351 5.84268L15.9447 4.5092C17.7152 3.49192 19.9272 3.65998 21.5239 4.93351L23.1297 6.21152C23.7789 6.72822 24.5841 7.00949 25.4138 7.00938L27.1275 7.0089C27.9599 7.00886 28.7676 6.72553 29.4176 6.20551L31.0095 4.93244C32.6091 3.65733 34.8263 3.49117 36.5976 4.51449L38.8993 5.84051C40.6727 6.86181 41.6385 8.86655 41.3316 10.89L41.0256 12.904C40.9006 13.7269 41.0592 14.5679 41.4753 15.2888L42.339 16.7849C42.7532 17.5022 43.398 18.0579 44.1688 18.3623L46.0619 19.1099C47.9654 19.8588 49.2172 21.6951 49.2188 23.741L49.2193 26.3956C49.2189 28.441 47.9671 30.2777 46.0633 31.0261L44.1624 31.7696C43.3871 32.0728 42.738 32.6308 42.3219 33.3518L41.4636 34.8379C41.0482 35.5575 40.8896 36.3968 41.0136 37.2184L41.3178 39.2373C41.6239 41.2567 40.6639 43.2586 38.8971 44.2836L36.5905 45.6153C34.8191 46.6323 32.6058 46.4634 31.0099 45.1885L29.4136 43.9156C28.764 43.3977 27.9579 43.1154 27.1271 43.1151L25.4109 43.1154C24.5784 43.1153 23.7707 43.3984 23.1204 43.9182L21.5261 45.1927C19.9274 46.468 17.7116 46.6351 15.9397 45.6137L13.6393 44.2828C11.8659 43.2615 10.9001 41.2568 11.2071 39.2333L11.513 37.2193C11.638 36.3964 11.4794 35.5555 11.0634 34.8346L10.2027 33.3439C9.78649 32.623 9.1375 32.0656 8.36231 31.7622L6.46518 31.0201C4.55992 30.2739 3.30617 28.437 3.30526 26.3907L3.30469 23.7362C3.30403 21.6889 4.55773 19.8512 6.46314 19.1043L8.35151 18.3672C9.12935 18.0633 9.78033 17.5033 10.197 16.7796L11.0627 15.2739C11.4742 14.5586 11.6325 13.7255 11.512 12.9092L11.2133 10.8871C10.9066 8.86803 11.8676 6.8664 13.6351 5.84268Z" fill="#FFC56F"/>
<path d="M21.8666 17.4364C19.504 18.8005 17.9632 20.5783 17.3981 22.6834C16.8352 24.7881 17.2804 27.0991 18.6445 29.4617C20.0085 31.8243 21.7863 33.3651 23.8915 33.9302C25.9961 34.4932 28.3071 34.0479 30.6698 32.6839C33.0324 31.3198 34.5732 29.542 35.1383 27.4369C35.7012 25.3322 35.256 23.0212 33.8919 20.6586C32.5279 18.296 30.7501 16.7552 28.6449 16.1901C26.5402 15.6271 24.2293 16.0724 21.8666 17.4364Z" fill="#FC613D"/>
</svg>
