<?xml version="1.0" encoding="UTF-8"?>
<svg width="15" height="15" viewBox="0 0 15 15" fill="none" xmlns="http://www.w3.org/2000/svg">
  <rect opacity="0.5" x="1" width="13" height="4" fill="#93F3FA" style="fill: #93f3fa; fill: color(display-p3 0.5765 0.9529 0.9804); fill-opacity: 1" />
  <rect x="1" y="8" width="2" height="4" rx="1" fill="#3E69FF" style="fill: #3e69ff; fill: color(display-p3 0.2436 0.41 1); fill-opacity: 1" />
  <rect x="1" y="13" width="2" height="2" rx="1" fill="#3E69FF" style="fill: #3e69ff; fill: color(display-p3 0.2436 0.41 1); fill-opacity: 1" />
  <rect x="5" y="12" width="2" height="2" rx="1" fill="#3E69FF" style="fill: #3e69ff; fill: color(display-p3 0.2436 0.41 1); fill-opacity: 1" />
  <path
    fill-rule="evenodd"
    clip-rule="evenodd"
    d="M14 4H1V11H3V10C3 9.44772 3.44772 9 4 9C4.55228 9 5 9.44772 5 10V11H7V10.5C7 10.2239 7.22386 10 7.5 10C7.77614 10 8 10.2239 8 10.5V11H10C10 10.4477 10.4477 10 11 10C11.5523 10 12 10.4477 12 11H14V4Z"
    fill="#3E69FF"
    style="fill: #3e69ff; fill: color(display-p3 0.2436 0.41 1); fill-opacity: 1" />
  <rect x="5" y="8" width="2" height="4" rx="1" fill="#3E69FF" style="fill: #3e69ff; fill: color(display-p3 0.2436 0.41 1); fill-opacity: 1" />
  <rect x="8" y="8" width="2" height="6" rx="1" fill="#3E69FF" style="fill: #3e69ff; fill: color(display-p3 0.2436 0.41 1); fill-opacity: 1" />
  <rect x="12" y="8" width="2" height="7" rx="1" fill="#3E69FF" style="fill: #3e69ff; fill: color(display-p3 0.2436 0.41 1); fill-opacity: 1" />
  <path
    fill-rule="evenodd"
    clip-rule="evenodd"
    d="M0 4.5C0 4.22386 0.209867 4 0.46875 4H14.5313C14.7901 4 15 4.22386 15 4.5C15 4.77614 14.7901 5 14.5313 5H0.46875C0.209867 5 0 4.77614 0 4.5Z"
    fill="#203AC2"
    style="fill: #203ac2; fill: color(display-p3 0.1243 0.2261 0.7606); fill-opacity: 1" />
</svg> 