<svg width="15" height="15" viewBox="0 0 15 15" fill="none" xmlns="http://www.w3.org/2000/svg">
    <path
        d="M0 4C0 2.34315 1.34315 1 3 1H10C12.2091 1 14 2.79086 14 5V12C14 13.6569 12.6569 15 11 15H2C0.89543 15 0 14.1046 0 13V4Z"
        fill="url(#paint0_linear_2727_174)" style="" />
    <path fill-rule="evenodd" clip-rule="evenodd"
        d="M14.9966 2.61928L12.3773 0L10.6312 1.74619L13.2504 4.36547L14.9966 2.61928ZM12.8116 4.80288L10.1923 2.18359L3.63887 8.73704L3.49219 11.503L6.25815 11.3563L12.8116 4.80288Z"
        fill="url(#paint1_linear_2727_174)" style="" />
    <defs>
        <linearGradient id="paint0_linear_2727_174" x1="1.16667" y1="14.4167" x2="9.91667" y2="5.08333"
            gradientUnits="userSpaceOnUse">
            <stop stop-color="#FFDBB0"
                style="stop-color:#FFDBB0;stop-color:color(display-p3 1.0000 0.8582 0.6917);stop-opacity:1;" />
            <stop offset="1" stop-color="#FFE2BD"
                style="stop-color:#FFE2BD;stop-color:color(display-p3 1.0000 0.8846 0.7417);stop-opacity:1;" />
        </linearGradient>
        <linearGradient id="paint1_linear_2727_174" x1="8.44698" y1="0" x2="8.44698" y2="13.0986"
            gradientUnits="userSpaceOnUse">
            <stop stop-color="#FFA901"
                style="stop-color:#FFA901;stop-color:color(display-p3 1.0000 0.6609 0.0028);stop-opacity:1;" />
            <stop offset="1" stop-color="#FF8A00"
                style="stop-color:#FF8A00;stop-color:color(display-p3 1.0000 0.5400 0.0000);stop-opacity:1;" />
        </linearGradient>
    </defs>
</svg> 