<svg width="15" height="15" viewBox="0 0 15 15" fill="none" xmlns="http://www.w3.org/2000/svg">
    <path
        d="M0 2C0 0.89543 0.895431 0 2 0H7.5H10.4216C10.952 0 11.4607 0.210714 11.8358 0.585786L14.4142 3.16421C14.7893 3.53929 15 4.04799 15 4.57843V7.5V13C15 14.1046 14.1046 15 13 15H2C0.89543 15 0 14.1046 0 13V2Z"
        fill="url(#paint0_linear_2643_316)" style="" />
    <path d="M2 9C2 8.44772 2.44772 8 3 8H12C12.5523 8 13 8.44772 13 9V15H2V9Z"
        fill="url(#paint1_linear_2643_316)" style="" />
    <rect x="2" y="2" width="4" height="4" rx="1" fill="#CFC6FF"
        style="fill:#CFC6FF;fill:color(display-p3 0.8099 0.7778 1.0000);fill-opacity:1;" />
    <defs>
        <linearGradient id="paint0_linear_2643_316" x1="0" y1="0" x2="5.35714" y2="15"
            gradientUnits="userSpaceOnUse">
            <stop stop-color="#BEB3FF"
                style="stop-color:#BEB3FF;stop-color:color(display-p3 0.7437 0.7020 1.0000);stop-opacity:1;" />
            <stop offset="1" stop-color="#917FFF"
                style="stop-color:#917FFF;stop-color:color(display-p3 0.5676 0.4972 1.0000);stop-opacity:1;" />
        </linearGradient>
        <linearGradient id="paint1_linear_2643_316" x1="6.4" y1="8" x2="11.5804" y2="13.8147"
            gradientUnits="userSpaceOnUse">
            <stop stop-color="#BDB2FF"
                style="stop-color:#BDB2FF;stop-color:color(display-p3 0.7410 0.6972 1.0000);stop-opacity:1;" />
            <stop offset="1" stop-color="#B0A2FF"
                style="stop-color:#B0A2FF;stop-color:color(display-p3 0.6888 0.6361 1.0000);stop-opacity:1;" />
        </linearGradient>
    </defs>
</svg> 