<svg width="17" height="17" viewBox="0 0 17 17" fill="none" xmlns="http://www.w3.org/2000/svg">
    <g clip-path="url(#clip0_2531_148)">
        <path fill-rule="evenodd" clip-rule="evenodd"
            d="M15.9979 5.97576C16.3944 5.97576 16.7148 6.31477 16.8141 6.83946C16.8214 6.87784 16.9916 7.78692 16.9916 8.50367C16.9916 9.23501 16.8157 10.159 16.814 10.1682C16.7148 10.6926 16.3941 11.0316 15.9968 11.0317L15.9827 11.0315L15.9119 11.0315C14.7651 11.0315 13.8321 11.9645 13.8321 13.1113C13.8321 13.4813 14.0121 13.9018 14.0139 13.9061C14.2188 14.3674 14.0602 14.9342 13.6447 15.2236L13.6194 15.2414L11.4762 16.4259L11.4494 16.4375C11.3143 16.4957 11.167 16.5253 11.0118 16.5253C10.6779 16.5252 10.3527 16.3863 10.1419 16.1537C9.90612 15.8952 9.08906 15.1565 8.45194 15.1565C7.86351 15.1565 7.06679 15.8154 6.77314 16.1345C6.56279 16.3632 6.23983 16.4998 5.9092 16.4998C5.75093 16.4998 5.60109 16.4692 5.46385 16.409L5.43757 16.3974L3.36999 15.2412L3.34538 15.224C2.93077 14.9338 2.77313 14.3665 2.97848 13.9043C2.98007 13.9006 3.15955 13.4839 3.15955 13.1113C3.15955 11.9645 2.22656 11.0315 1.07974 11.0315H1.00673L0.993518 11.0317C0.597101 11.0317 0.276789 10.6927 0.177449 10.168C0.170179 10.1294 0 9.21719 0 8.50372C0 7.79023 0.170179 6.87798 0.177425 6.83951C0.276692 6.31472 0.596811 5.97569 0.992962 5.97569L1.00789 5.97586H1.07974C2.22656 5.97586 3.15955 5.04287 3.15955 3.89605C3.15955 3.52108 2.97976 3.10612 2.97794 3.10196C2.77265 2.63959 2.93164 2.0728 3.34782 1.78364L3.37359 1.76577L5.5557 0.567124L5.58309 0.555506C5.71803 0.49795 5.86558 0.46875 6.02156 0.46875C6.35088 0.46875 6.67409 0.602145 6.8861 0.825581C7.11828 1.06863 7.92097 1.76316 8.53966 1.76316C9.15282 1.76316 9.95078 1.08201 10.182 0.843381C10.3929 0.624414 10.7135 0.493555 11.0396 0.493555C11.1986 0.493555 11.3489 0.523818 11.4862 0.583499L11.5128 0.595189L13.6206 1.76608L13.6457 1.78376C14.0605 2.07318 14.2186 2.64048 14.0131 3.1031C14.011 3.10801 13.8321 3.52453 13.8321 3.8961C13.8321 5.04292 14.7651 5.97591 15.9119 5.97591H15.9849L15.9979 5.97576ZM11.4685 8.49266C11.4685 6.83337 10.1185 5.48346 8.45918 5.48346C6.79989 5.48346 5.44998 6.83337 5.44998 8.49266C5.44998 10.1519 6.79989 11.5019 8.45918 11.5019C10.1185 11.5019 11.4685 10.1519 11.4685 8.49266Z"
            fill="url(#paint0_linear_2531_148)" style="" />
    </g>
    <defs>
        <linearGradient id="paint0_linear_2531_148" x1="1.58058" y1="-1.67212" x2="6.83361" y2="23.8806"
            gradientUnits="userSpaceOnUse">
            <stop stop-color="#DCECFF"
                style="stop-color:#DCECFF;stop-color:color(display-p3 0.8611 0.9250 1.0000);stop-opacity:1;" />
            <stop offset="1" stop-color="#124DFF"
                style="stop-color:#124DFF;stop-color:color(display-p3 0.0706 0.3020 1.0000);stop-opacity:1;" />
        </linearGradient>
        <clipPath id="clip0_2531_148">
            <rect width="17" height="17" fill="white" style="fill:white;fill-opacity:1;" />
        </clipPath>
    </defs>
</svg>