<svg width="14" height="14" viewBox="0 0 14 14" fill="none" xmlns="http://www.w3.org/2000/svg">
<path d="M4 7C4 8.10457 3.10457 9 2 9C0.89543 9 0 8.10457 0 7C0 5.89543 0.89543 5 2 5C3.10457 5 4 5.89543 4 7Z" fill="url(#paint0_linear_3947_222)"/>
<path d="M9 7C9 8.10457 8.10457 9 7 9C5.89543 9 5 8.10457 5 7C5 5.89543 5.89543 5 7 5C8.10457 5 9 5.89543 9 7Z" fill="url(#paint1_linear_3947_222)"/>
<path d="M14 7C14 8.10457 13.1046 9 12 9C10.8954 9 10 8.10457 10 7C10 5.89543 10.8954 5 12 5C13.1046 5 14 5.89543 14 7Z" fill="url(#paint2_linear_3947_222)"/>
<defs>
<linearGradient id="paint0_linear_3947_222" x1="14" y1="4.46667" x2="-7.10742e-09" y2="4.46667" gradientUnits="userSpaceOnUse">
<stop stop-color="#B1E86D"/>
<stop offset="1" stop-color="#D6E66E"/>
</linearGradient>
<linearGradient id="paint1_linear_3947_222" x1="14" y1="4.46667" x2="-7.10742e-09" y2="4.46667" gradientUnits="userSpaceOnUse">
<stop stop-color="#B1E86D"/>
<stop offset="1" stop-color="#D6E66E"/>
</linearGradient>
<linearGradient id="paint2_linear_3947_222" x1="14" y1="4.46667" x2="-7.10742e-09" y2="4.46667" gradientUnits="userSpaceOnUse">
<stop stop-color="#B1E86D"/>
<stop offset="1" stop-color="#D6E66E"/>
</linearGradient>
</defs>
</svg>
