<svg width="15" height="15" viewBox="0 0 15 15" fill="none" xmlns="http://www.w3.org/2000/svg">
<rect x="6.75024" y="12" width="9" height="1.49951" rx="0.749756" transform="rotate(-90 6.75024 12)" fill="#545454"/>
<path d="M7.93301 14.6145C7.74056 14.9478 7.25944 14.9478 7.06699 14.6145L5.45239 11.8179C5.25994 11.4846 5.5005 11.0679 5.8854 11.0679L9.1146 11.0679C9.4995 11.0679 9.74006 11.4846 9.54761 11.8179L7.93301 14.6145Z" fill="#3E69FF"/>
<path d="M7.06699 0.385619C7.25944 0.052286 7.74056 0.052287 7.93301 0.38562L9.54761 3.18219C9.74006 3.51552 9.4995 3.93219 9.1146 3.93219L5.8854 3.93219C5.5005 3.93219 5.25994 3.51552 5.45239 3.18219L7.06699 0.385619Z" fill="#3E69FF"/>
<rect x="12" y="8.24976" width="9" height="1.49951" rx="0.749756" transform="rotate(-180 12 8.24976)" fill="#7B7B7B"/>
<path d="M14.6145 7.06699C14.9478 7.25944 14.9478 7.74056 14.6145 7.93301L11.8179 9.54761C11.4846 9.74006 11.0679 9.4995 11.0679 9.1146L11.0679 5.8854C11.0679 5.5005 11.4846 5.25994 11.8179 5.45239L14.6145 7.06699Z" fill="#3E69FF"/>
<path d="M0.385619 7.93301C0.0522859 7.74056 0.0522869 7.25944 0.38562 7.06699L3.18219 5.45239C3.51552 5.25994 3.93219 5.5005 3.93219 5.8854L3.93219 9.1146C3.93219 9.4995 3.51552 9.74006 3.18219 9.54761L0.385619 7.93301Z" fill="#3E69FF"/>
</svg>
