<svg t="1744988856416" class="icon" viewBox="0 0 1024 1024" version="1.1" xmlns="http://www.w3.org/2000/svg" p-id="4131" width="24" height="24"><path d="M874.058005 149.941995a510.06838 510.06838 0 1 0 109.740156 162.738976 511.396369 511.396369 0 0 0-109.740156-162.738976z" fill="#4D4D4D" p-id="4132"></path><path d="M417.954256 281.533601a41.046923 41.046923 0 0 0-41.77128 40.201839v385.116718a41.892007 41.892007 0 0 0 83.663287 0v-385.116718a41.167649 41.167649 0 0 0-41.892007-40.201839zM606.045744 281.533601a41.046923 41.046923 0 0 0-41.77128 40.201839v385.116718a41.892007 41.892007 0 0 0 83.663287 0v-385.116718a41.167649 41.167649 0 0 0-41.892007-40.201839z" fill="#FFFFFF" p-id="4133"></path></svg>