<svg width="15" height="15" viewBox="0 0 15 15" fill="none" xmlns="http://www.w3.org/2000/svg">
    <circle cx="7.5" cy="7.5" r="7.5" fill="#EDEDED" style="fill:#EDEDED;fill:color(display-p3 0.9306 0.9306 0.9306);fill-opacity:1;"/>
    <path d="M4 4.48218C4.30644 3.66792 4.78361 3.05066 5.43152 2.63039C6.08818 2.21013 6.85866 2 7.74296 2C8.34709 2 8.89431 2.10069 9.38462 2.30206C9.88368 2.49468 10.2777 2.77924 10.5666 3.15572C10.8555 3.53221 11 3.98749 11 4.52158C11 4.90682 10.9256 5.2439 10.7767 5.53283C10.6279 5.82176 10.4528 6.06692 10.2514 6.26829C10.05 6.46967 9.77423 6.70607 9.42402 6.97749C9.10882 7.21388 8.86366 7.41526 8.68856 7.58161C8.5222 7.73921 8.38649 7.92746 8.28143 8.14634C8.18512 8.36523 8.15447 8.61476 8.18949 8.89493H6.45591C6.35084 8.58849 6.29831 8.3127 6.29831 8.06754C6.29831 7.64728 6.41213 7.29268 6.63978 7.00375C6.87617 6.71482 7.20888 6.404 7.6379 6.0713C7.96185 5.81739 8.20263 5.60288 8.36023 5.42777C8.52658 5.2439 8.60976 5.03815 8.60976 4.81051C8.60976 4.57411 8.51345 4.39024 8.32083 4.25891C8.13696 4.11882 7.88305 4.04878 7.5591 4.04878C6.74484 4.04878 6.14509 4.53471 5.75985 5.50657L4 4.48218ZM7.42777 12.3358C7.0863 12.3358 6.79737 12.2133 6.56098 11.9681C6.32458 11.7142 6.20638 11.4165 6.20638 11.075C6.20638 10.7248 6.32458 10.4271 6.56098 10.182C6.80613 9.92808 7.09506 9.80113 7.42777 9.80113C7.76923 9.80113 8.06254 9.92808 8.30769 10.182C8.5616 10.4271 8.68856 10.7248 8.68856 11.075C8.68856 11.4165 8.5616 11.7142 8.30769 11.9681C8.06254 12.2133 7.76923 12.3358 7.42777 12.3358Z" fill="#A6A6A6" style="fill:#A6A6A6;fill:color(display-p3 0.6528 0.6528 0.6528);fill-opacity:1;"/>
</svg> 