<svg width="34" height="33" viewBox="0 0 34 33" fill="none" xmlns="http://www.w3.org/2000/svg">
<path d="M32.8611 18.5412C31.879 17.1318 29.9326 16.7814 28.4424 17.6748L27.3831 18.3094L30.3341 6.50253C30.7803 4.71648 29.6338 2.90117 27.7908 2.54226C26.103 2.22264 24.4476 3.37406 24.0253 5.06614L21.6295 14.6495L9.07372 11.5272L10.9213 4.135C11.3437 2.44445 10.4558 0.659944 8.78341 0.143923C8.36191 0.0143234 7.91838 -0.0283899 7.4798 0.018381C7.04123 0.0651519 6.61677 0.200429 6.23226 0.415985C5.84774 0.631541 5.51121 0.922869 5.24311 1.27225C4.97502 1.62163 4.78098 2.02176 4.67279 2.4483L0.257968 20.1116C-0.89245 24.7134 1.91256 29.3699 6.52736 30.5183L14.9107 32.6032C18.7102 33.5482 22.5768 31.8153 24.4584 28.5566C25.0306 27.6016 25.8073 26.7637 26.7562 26.1675L31.8551 23.113C33.4556 22.1803 33.9413 20.1055 32.865 18.5404L32.8611 18.5412Z" fill="#FFEAD4" style="fill:#FFEAD4;fill:color(display-p3 1.0000 0.9176 0.8314);fill-opacity:1;"/>
<path d="M10.2573 20.1347C9.42605 19.9258 8.71143 19.3972 8.26961 18.6644C7.82779 17.9316 7.69468 17.0541 7.89937 16.2237L9.85662 8.39332C10.0669 7.56444 10.5973 6.85219 11.3322 6.41208C12.067 5.97197 12.9466 5.83974 13.7789 6.04427C14.6098 6.254 15.3238 6.78315 15.765 7.51618C16.2062 8.24922 16.3388 9.1266 16.1337 9.95679L14.1773 17.7864C13.967 18.6153 13.4365 19.3276 12.7017 19.7677C11.9668 20.2078 11.0873 20.34 10.255 20.1355L10.2573 20.1347ZM16.5345 21.6959C15.7035 21.4866 14.9892 20.9579 14.5477 20.2251C14.1062 19.4924 13.9725 18.6166 14.1773 17.7864L16.1345 9.95448C16.3448 9.12559 16.8752 8.41334 17.6101 7.97323C18.3449 7.53312 19.2245 7.4009 20.0567 7.60543C20.8881 7.81465 21.6027 8.34359 22.0444 9.07668C22.486 9.80978 22.6189 10.6874 22.4139 11.5179L20.4567 19.3484C20.2464 20.1773 19.716 20.8895 18.9811 21.3296C18.2463 21.7697 17.3667 21.9004 16.5345 21.6959Z" fill="#FFDBB6" style="fill:#FFDBB6;fill:color(display-p3 1.0000 0.8588 0.7137);fill-opacity:1;"/>
</svg>
