<svg width="17" height="15" viewBox="0 0 17 15" fill="none" xmlns="http://www.w3.org/2000/svg">
    <path
        d="M13.2145 4.28362C12.9179 1.94307 10.9207 0.132812 8.5 0.132812C6.07933 0.132812 4.08118 1.94307 3.78456 4.28362C1.62141 4.75097 0 6.67377 0 8.97712C0 11.6296 2.15075 13.7803 4.80319 13.7803H12.1968C14.8492 13.7803 17 11.6296 17 8.97712C16.999 6.67472 15.3776 4.75097 13.2145 4.28362Z"
        fill="url(#paint0_linear_2743_147)" style="" />
    <path
        d="M9.92136 8.11267V11.6493C9.92136 11.9306 9.69341 12.1586 9.41205 12.1586H7.58939C7.30803 12.1586 7.08008 11.9306 7.08008 11.6493V8.11267H5.4539C5.00754 8.11267 4.77672 7.57951 5.08288 7.25428L8.12923 4.0086C8.17685 3.9578 8.23439 3.9173 8.29829 3.88962C8.36219 3.86194 8.43108 3.84766 8.50072 3.84766C8.57036 3.84766 8.63925 3.86194 8.70315 3.88962C8.76705 3.9173 8.82459 3.9578 8.87221 4.0086L11.9186 7.25428C12.2238 7.57951 11.9929 8.11267 11.5475 8.11267H9.92136Z"
        fill="white" fill-opacity="0.66" style="fill:white;fill-opacity:0.66;" />
    <defs>
        <linearGradient id="paint0_linear_2743_147" x1="8.5" y1="0.132812" x2="8.5" y2="13.7803"
            gradientUnits="userSpaceOnUse">
            <stop stop-color="#7ED1FF"
                style="stop-color:#7ED1FF;stop-color:color(display-p3 0.4944 0.8180 1.0000);stop-opacity:1;" />
            <stop offset="1" stop-color="#A0AAFF"
                style="stop-color:#A0AAFF;stop-color:color(display-p3 0.6278 0.6650 1.0000);stop-opacity:1;" />
        </linearGradient>
    </defs>
</svg> 