<?xml version="1.0" encoding="UTF-8"?>
<svg width="15" height="15" viewBox="0 0 15 15" fill="none" xmlns="http://www.w3.org/2000/svg">
  <path
    d="M10.9804 12.3946C10.5899 12.0041 10.5899 11.3709 10.9804 10.9804C11.3709 10.5899 12.0041 10.5899 12.3946 10.9804L14.4247 13.0105C14.8153 13.401 14.8153 14.0342 14.4247 14.4247C14.0342 14.8153 13.401 14.8153 13.0105 14.4247L10.9804 12.3946Z"
    fill="#7B7B7B"
    style="fill: #7b7b7b; fill: color(display-p3 0.4819 0.4819 0.4819); fill-opacity: 1" />
  <path
    fill-rule="evenodd"
    clip-rule="evenodd"
    d="M7 1.5C3.96243 1.5 1.5 3.96243 1.5 7C1.5 10.0376 3.96243 12.5 7 12.5C10.0376 12.5 12.5 10.0376 12.5 7C12.5 3.96243 10.0376 1.5 7 1.5ZM0.5 7C0.5 3.41015 3.41015 0.5 7 0.5C10.5899 0.5 13.5 3.41015 13.5 7C13.5 10.5899 10.5899 13.5 7 13.5C3.41015 13.5 0.5 10.5899 0.5 7Z"
    fill="#545454"
    style="fill: #545454; fill: color(display-p3 0.3306 0.3306 0.3306); fill-opacity: 1" />
  <path
    fill-rule="evenodd"
    clip-rule="evenodd"
    d="M7.66493 3.66667C7.66493 3.29848 7.36645 3 6.99826 3C6.63007 3 6.3316 3.29848 6.3316 3.66667V6.32986H3.66667C3.29848 6.32986 3 6.62834 3 6.99653C3 7.36472 3.29848 7.66319 3.66667 7.66319H6.3316V10.3333C6.3316 10.7015 6.63007 11 6.99826 11C7.36645 11 7.66493 10.7015 7.66493 10.3333V7.66319H10.3333C10.7015 7.66319 11 7.36472 11 6.99653C11 6.62834 10.7015 6.32986 10.3333 6.32986H7.66493V3.66667Z"
    fill="#3E69FF"
    style="fill: #3e69ff; fill: color(display-p3 0.2436 0.41 1); fill-opacity: 1" />
</svg> 