<svg width="53" height="55" viewBox="0 0 53 55" fill="none" xmlns="http://www.w3.org/2000/svg">
<path d="M8.4789 15.307L8.47888 15.307C3.79885 18.9449 1 24.7065 1 31.5852C1 38.5719 3.89228 44.234 8.59455 48.117C13.2638 51.9728 19.6181 54 26.5 54C33.3819 54 39.7362 51.9728 44.4055 48.117C49.1078 44.234 52 38.5719 52 31.5852C52 24.7375 49.317 18.8223 44.6808 15.0921C40.034 11.3533 33.621 9.96829 26.4995 11.8107C26.4976 11.8108 26.4956 11.811 26.4934 11.8111C26.4656 11.8132 26.426 11.8146 26.3798 11.8144C26.334 11.8141 26.2913 11.8123 26.2581 11.8097C26.2454 11.8087 26.2362 11.8078 26.2303 11.8071C19.3058 10.2807 13.147 11.6785 8.4789 15.307Z" fill="#FC613D" stroke="#FF9B53" stroke-width="2"/>
<path d="M18.9661 15.3195C18.8601 15.3066 18.7528 15.3105 18.648 15.331C15.7464 15.8955 13.0888 17.1966 10.9624 19.0938C8.69154 21.1197 7.20677 23.6884 6.66832 26.5224C6.64339 26.6536 6.64455 26.7884 6.67173 26.9192C6.6989 27.0499 6.75157 27.1741 6.82672 27.2844C6.90187 27.3948 6.99803 27.4893 7.10971 27.5626C7.22139 27.6358 7.3464 27.6863 7.4776 27.7112C8.02728 27.8152 8.5615 27.4537 8.66642 26.9019C9.55803 22.2083 13.7254 18.3607 19.0365 17.3274C19.2745 17.2815 19.4882 17.1521 19.6392 16.9625C19.7902 16.7729 19.8685 16.5356 19.86 16.2934C19.8515 16.0511 19.7568 15.8199 19.5929 15.6414C19.429 15.4628 19.2067 15.3487 18.9661 15.3195Z" fill="white"/>
<path d="M6.33537 31.4978C6.29131 31.3334 6.28007 31.1618 6.30229 30.9931C6.32451 30.8243 6.37976 30.6615 6.46488 30.5141C6.55 30.3666 6.66333 30.2374 6.79839 30.1338C6.93345 30.0301 7.08761 29.9541 7.25205 29.9101C7.41649 29.866 7.588 29.8548 7.75679 29.877C7.92557 29.8992 8.08833 29.9544 8.23576 30.0396C8.3832 30.1247 8.51242 30.238 8.61606 30.3731C8.7197 30.5081 8.79572 30.6623 8.83978 30.8267C8.88384 30.9912 8.89508 31.1627 8.87286 31.3315C8.85064 31.5003 8.79539 31.663 8.71027 31.8105C8.62515 31.9579 8.51182 32.0871 8.37676 32.1908C8.2417 32.2944 8.08755 32.3704 7.9231 32.4145C7.75866 32.4585 7.58715 32.4698 7.41836 32.4476C7.24958 32.4253 7.08682 32.3701 6.93939 32.285C6.79195 32.1998 6.66273 32.0865 6.55909 31.9515C6.45545 31.8164 6.37943 31.6622 6.33537 31.4978Z" fill="white"/>
<path fill-rule="evenodd" clip-rule="evenodd" d="M25.929 11.1399C26.5496 7.93974 25.7748 4.09999 25 1.00032C25.6974 0.999819 26.1519 1.00002 26.5325 1.00018C26.6977 1.00025 26.8489 1.00032 27 1.00032C27.8465 6.17638 28.1557 8.71498 28.155 10.1486C30.4478 8.79344 31.0154 7.03202 31.6724 4.99334L31.6724 4.99324L31.6724 4.99316C31.7769 4.6689 31.8837 4.33763 32 3.99986C33.9319 6.60143 32.7252 9.85908 31.7005 11.3429C31.4061 11.7691 31.065 12.1237 30.6985 12.4185C31.0343 12.4653 31.3656 12.4888 31.6917 12.4888C35.9571 12.4888 38.4761 8.77541 38.5 8.73424C38.8317 8.16262 40.1622 6.76561 40.788 6.23424C40.788 6.79001 40.8222 7.29675 40.8525 7.74696C40.9041 8.51183 40.9447 9.11354 40.788 9.51537C38.6553 14.9773 35.3273 16.1234 32.9113 16.1234C32.3492 16.1234 31.8027 16.0613 31.2822 15.9579C33.0299 17.337 34.0233 16.8494 34.7621 16.4867C35.0343 16.3531 35.2719 16.2365 35.5 16.2365C36.5 17.2365 31.5 20.7359 27.5 18.2359C26.096 17.3584 25.1848 16.8505 24.5934 16.5609C23.2865 17.3423 22.0325 17.7364 20.8452 17.7364C16.7588 17.7364 15.0619 16.1893 15 16.0016C14.8868 15.6582 14.6189 15.506 14.3403 15.3478C13.9316 15.1157 13.4999 14.8706 13.5 13.9897C13.8184 13.9896 14.2247 14.0624 14.7751 14.1611C15.9535 14.3724 17.7926 14.7022 20.8452 14.6881C21.3122 14.6881 21.795 14.5865 22.2634 14.4287C19.621 13.9554 17.7548 11.5216 16.3729 9.71922L16.3728 9.71918L16.3725 9.71879L16.3724 9.71858C16.2439 9.55097 16.1195 9.38883 15.9991 9.23424C15.1263 8.11366 13.5004 4.99986 14.5 3.99986C15.328 5.93191 17.4316 7.19376 19.8811 8.66306L19.9997 8.73424C20.3343 8.935 20.6871 9.19244 21.0625 9.46641L21.0625 9.46641C22.2562 10.3375 23.6788 11.3757 25.4744 11.2905C25.503 11.2793 25.5322 11.269 25.5618 11.2597C25.6871 11.2203 25.8095 11.1804 25.929 11.1399Z" fill="#8C903A"/>
<path d="M25 1.00032L24.9998 0.750318L24.6799 0.750546L24.7575 1.06094L25 1.00032ZM25.929 11.1399L26.0092 11.3767L26.1468 11.3301L26.1744 11.1875L25.929 11.1399ZM26.5325 1.00018L26.5324 1.25018L26.5324 1.25018L26.5325 1.00018ZM27 1.00032L27.2467 0.959969L27.2124 0.750317H27V1.00032ZM28.155 10.1486L27.905 10.1484L27.9048 10.5868L28.2822 10.3638L28.155 10.1486ZM31.6724 4.99334L31.4359 4.91225L31.4344 4.91666L31.6724 4.99334ZM31.6724 4.99324L31.9091 5.07439L31.9121 5.06426L31.6724 4.99324ZM31.6724 4.99316L31.4344 4.91646L31.4327 4.92214L31.6724 4.99316ZM32 3.99986L32.2007 3.85082L31.918 3.47013L31.7636 3.91846L32 3.99986ZM31.7005 11.3429L31.9062 11.4849L31.9062 11.4849L31.7005 11.3429ZM30.6985 12.4185L30.5418 12.2238L30.0912 12.5863L30.664 12.6661L30.6985 12.4185ZM38.5 8.73424L38.7162 8.85972L38.7162 8.85972L38.5 8.73424ZM40.788 6.23424H41.038V5.694L40.6262 6.04367L40.788 6.23424ZM40.8525 7.74696L41.102 7.73014L41.102 7.73014L40.8525 7.74696ZM40.788 9.51537L41.0209 9.6063L41.0209 9.60621L40.788 9.51537ZM31.2822 15.9579L31.3309 15.7126L31.1273 16.1541L31.2822 15.9579ZM34.7621 16.4867L34.8722 16.7112L34.8722 16.7112L34.7621 16.4867ZM35.5 16.2365L35.6768 16.0597L35.6036 15.9865H35.5V16.2365ZM27.5 18.2359L27.6325 18.0239L27.6325 18.0239L27.5 18.2359ZM24.5934 16.5609L24.7034 16.3364L24.5815 16.2767L24.4651 16.3463L24.5934 16.5609ZM15 16.0016L14.7626 16.0798L14.7626 16.0798L15 16.0016ZM14.3403 15.3478L14.4637 15.1304L14.4637 15.1304L14.3403 15.3478ZM13.5 13.9897L13.4999 13.7397L13.25 13.7398L13.25 13.9897L13.5 13.9897ZM14.7751 14.1611L14.731 14.4072L14.731 14.4072L14.7751 14.1611ZM20.8452 14.6881V14.4381L20.8441 14.4381L20.8452 14.6881ZM22.2634 14.4287L22.3432 14.6657L22.3075 14.1827L22.2634 14.4287ZM16.3729 9.71922L16.1743 9.87109L16.1745 9.87135L16.3729 9.71922ZM16.3728 9.71918L16.5714 9.56731L16.5714 9.56729L16.3728 9.71918ZM16.3725 9.71879L16.5711 9.5669L16.5706 9.5663L16.3725 9.71879ZM16.3724 9.71858L16.174 9.8707L16.1743 9.87107L16.3724 9.71858ZM15.9991 9.23424L16.1964 9.08064L16.1964 9.08061L15.9991 9.23424ZM14.5 3.99986L14.7298 3.90138L14.5843 3.5619L14.3232 3.82312L14.5 3.99986ZM19.8811 8.66306L20.0097 8.44868L20.0097 8.44868L19.8811 8.66306ZM19.9997 8.73424L20.1284 8.51986L20.1283 8.51985L19.9997 8.73424ZM21.0625 9.46641L21.2189 9.271L21.2099 9.26446L21.0625 9.46641ZM21.0625 9.46641L20.9062 9.66182L20.9152 9.66836L21.0625 9.46641ZM25.4744 11.2905L25.4863 11.5402L25.5274 11.5382L25.5657 11.5232L25.4744 11.2905ZM25.5618 11.2597L25.6367 11.4982L25.6367 11.4982L25.5618 11.2597ZM24.7575 1.06094C25.5329 4.16315 26.2924 7.9529 25.6836 11.0923L26.1744 11.1875C26.8068 7.92658 26.0167 4.03683 25.2425 0.939692L24.7575 1.06094ZM26.5326 0.750181C26.152 0.750016 25.6973 0.749819 24.9998 0.750318L25.0002 1.25032C25.6974 1.24982 26.1518 1.25002 26.5324 1.25018L26.5326 0.750181ZM27 0.750317C26.849 0.750317 26.6978 0.750252 26.5326 0.750181L26.5324 1.25018C26.6976 1.25025 26.8488 1.25032 27 1.25032V0.750317ZM28.405 10.1487C28.4057 8.69084 28.0924 6.13106 27.2467 0.959969L26.7533 1.04067C27.6006 6.22171 27.9057 8.73913 27.905 10.1484L28.405 10.1487ZM28.2822 10.3638C30.6627 8.95683 31.2528 7.11036 31.9103 5.07002L31.4344 4.91666C30.778 6.95369 30.2329 8.63005 28.0278 9.93334L28.2822 10.3638ZM31.9089 5.07442L31.9089 5.07432L31.4359 4.91216L31.4359 4.91226L31.9089 5.07442ZM31.9121 5.06426L31.9121 5.06419L31.4327 4.92214L31.4327 4.92222L31.9121 5.06426ZM31.9104 5.06984C32.015 4.74525 32.121 4.41631 32.2364 4.08126L31.7636 3.91846C31.6464 4.25895 31.5389 4.59256 31.4345 4.91648L31.9104 5.06984ZM31.7993 4.14891C32.7166 5.38419 32.893 6.77798 32.7115 8.05536C32.5294 9.33689 31.9883 10.4862 31.4948 11.2008L31.9062 11.4849C32.4374 10.7157 33.012 9.49433 33.2065 8.1257C33.4016 6.75291 33.2153 5.2171 32.2007 3.85082L31.7993 4.14891ZM31.4948 11.2008C31.2151 11.6058 30.8909 11.9429 30.5418 12.2238L30.8553 12.6133C31.2391 12.3044 31.5972 11.9324 31.9062 11.4849L31.4948 11.2008ZM30.664 12.6661C31.0107 12.7145 31.3535 12.7388 31.6917 12.7388V12.2388C31.3776 12.2388 31.0578 12.2162 30.733 12.1709L30.664 12.6661ZM31.6917 12.7388C33.8998 12.7388 35.6495 11.7774 36.8426 10.8221C38.032 9.86983 38.6884 8.90775 38.7162 8.85972L38.2838 8.60876C38.2878 8.6019 37.6726 9.51711 36.5301 10.4318C35.3914 11.3435 33.7489 12.2388 31.6917 12.2388V12.7388ZM38.7162 8.85972C38.866 8.60162 39.2624 8.12873 39.7169 7.63925C40.1662 7.15536 40.6477 6.68134 40.9498 6.42481L40.6262 6.04367C40.3025 6.31851 39.8058 6.80868 39.3505 7.29904C38.9004 7.78382 38.4657 8.29524 38.2838 8.60876L38.7162 8.85972ZM40.538 6.23424C40.538 6.79955 40.5728 7.31416 40.6031 7.76378L41.102 7.73014C41.0716 7.27934 41.038 6.78048 41.038 6.23424H40.538ZM40.6031 7.76378C40.6291 8.14913 40.6513 8.48021 40.6484 8.76478C40.6455 9.05107 40.6169 9.26593 40.5551 9.42453L41.0209 9.60621C41.1158 9.36299 41.1453 9.07607 41.1484 8.76983C41.1515 8.46187 41.1276 8.10966 41.102 7.73014L40.6031 7.76378ZM40.5551 9.42444C39.5028 12.1194 38.165 13.7269 36.8136 14.662C35.4626 15.597 34.0788 15.8734 32.9113 15.8734V16.3734C34.1598 16.3734 35.648 16.0767 37.0981 15.0732C38.548 14.0699 39.9405 12.3733 41.0209 9.6063L40.5551 9.42444ZM32.9113 15.8734C32.3676 15.8734 31.8375 15.8133 31.3309 15.7126L31.2334 16.2031C31.768 16.3093 32.3309 16.3734 32.9113 16.3734V15.8734ZM31.1273 16.1541C32.0306 16.8669 32.768 17.1196 33.3982 17.1254C34.0233 17.1312 34.5049 16.8914 34.8722 16.7112L34.6519 16.2623C34.2804 16.4446 33.8961 16.63 33.4028 16.6255C32.9147 16.621 32.2815 16.428 31.437 15.7616L31.1273 16.1541ZM34.8722 16.7112C35.1619 16.569 35.3423 16.4865 35.5 16.4865V15.9865C35.2016 15.9865 34.9067 16.1373 34.6519 16.2623L34.8722 16.7112ZM35.3232 16.4132C35.3722 16.4622 35.3971 16.5282 35.3656 16.6487C35.3311 16.7806 35.231 16.9544 35.0494 17.1541C34.6891 17.5504 34.0661 17.9849 33.2776 18.3185C31.7012 18.9853 29.5422 19.2175 27.6325 18.0239L27.3675 18.4479C29.4578 19.7544 31.7988 19.4869 33.4724 18.779C34.3089 18.4251 34.9984 17.9535 35.4194 17.4905C35.6283 17.2607 35.7861 17.0165 35.8493 16.7753C35.9154 16.5228 35.8778 16.2608 35.6768 16.0597L35.3232 16.4132ZM27.6325 18.0239C26.2251 17.1443 25.3057 16.6314 24.7034 16.3364L24.4834 16.7854C25.0638 17.0697 25.9668 17.5725 27.3675 18.4479L27.6325 18.0239ZM24.4651 16.3463C23.1861 17.1111 21.9761 17.4864 20.8452 17.4864V17.9864C22.0889 17.9864 23.3869 17.5736 24.7217 16.7754L24.4651 16.3463ZM20.8452 17.4864C18.8341 17.4864 17.4225 17.1058 16.5132 16.7102C16.058 16.5121 15.729 16.3104 15.5135 16.1509C15.4055 16.071 15.3279 16.0031 15.278 15.9532C15.2529 15.9281 15.237 15.9097 15.2283 15.8986C15.2148 15.8812 15.2272 15.8922 15.2374 15.9233L14.7626 16.0798C14.7805 16.1344 14.8134 16.1795 14.8336 16.2054C14.8585 16.2375 14.8894 16.2717 14.9246 16.3068C14.9953 16.3775 15.0924 16.4613 15.216 16.5528C15.4638 16.7362 15.8261 16.9565 16.3137 17.1686C17.2899 17.5934 18.7699 17.9864 20.8452 17.9864V17.4864ZM15.2374 15.9233C15.0902 15.4765 14.7325 15.283 14.4637 15.1304L14.2168 15.5652C14.5053 15.729 14.6835 15.8399 14.7626 16.0798L15.2374 15.9233ZM14.4637 15.1304C14.2537 15.0112 14.0869 14.9133 13.9627 14.7567C13.8457 14.6093 13.7499 14.3862 13.75 13.9898L13.25 13.9897C13.2499 14.4741 13.3699 14.814 13.571 15.0674C13.7647 15.3116 14.0181 15.4524 14.2168 15.5652L14.4637 15.1304ZM13.5001 14.2397C13.7909 14.2396 14.171 14.3068 14.731 14.4072L14.8193 13.9151C14.2783 13.8181 13.8459 13.7396 13.4999 13.7397L13.5001 14.2397ZM14.731 14.4072C15.9164 14.6198 17.7723 14.9523 20.8464 14.9381L20.8441 14.4381C17.813 14.4521 15.9906 14.1251 14.8193 13.9151L14.731 14.4072ZM20.8452 14.9381C21.3472 14.9381 21.8578 14.8292 22.3432 14.6657L22.1836 14.1918C21.7323 14.3438 21.2772 14.4381 20.8452 14.4381V14.9381ZM22.3075 14.1827C21.0504 13.9575 19.9651 13.2636 19.0148 12.3884C18.0636 11.5125 17.2641 10.4707 16.5713 9.5671L16.1745 9.87135C16.8636 10.7701 17.6882 11.8464 18.6761 12.7562C19.665 13.6669 20.834 14.4267 22.2193 14.6748L22.3075 14.1827ZM16.5715 9.56736L16.5714 9.56731L16.1742 9.87104L16.1743 9.87109L16.5715 9.56736ZM16.5714 9.56729L16.5711 9.5669L16.174 9.87068L16.1743 9.87107L16.5714 9.56729ZM16.5706 9.5663L16.5705 9.56608L16.1743 9.87107L16.1744 9.87128L16.5706 9.5663ZM16.5708 9.56645C16.4424 9.399 16.3175 9.2361 16.1964 9.08064L15.8019 9.38783C15.9216 9.54156 16.0453 9.70294 16.174 9.8707L16.5708 9.56645ZM16.1964 9.08061C15.7757 8.54058 15.1634 7.50428 14.7816 6.48419C14.5906 5.97405 14.4629 5.48262 14.4394 5.06788C14.4156 4.64837 14.5002 4.3533 14.6768 4.1766L14.3232 3.82312C14 4.14642 13.913 4.61558 13.9402 5.09617C13.9677 5.58154 14.1136 6.12609 14.3133 6.65948C14.7127 7.72642 15.3497 8.80731 15.8019 9.38786L16.1964 9.08061ZM14.2702 4.09834C14.707 5.1175 15.4748 5.947 16.4273 6.70101C17.3781 7.45366 18.5314 8.14501 19.7525 8.87745L20.0097 8.44868C18.7813 7.71181 17.6581 7.03758 16.7377 6.30897C15.819 5.58172 15.121 4.81427 14.7298 3.90138L14.2702 4.09834ZM19.7525 8.87745L19.8711 8.94862L20.1283 8.51985L20.0097 8.44868L19.7525 8.87745ZM19.8711 8.94861C20.1942 9.14243 20.5373 9.39261 20.9152 9.66835L21.2099 9.26446C20.8369 8.99226 20.4745 8.72756 20.1284 8.51986L19.8711 8.94861ZM20.9064 9.66162L20.9064 9.66163L21.2187 9.2712L21.2187 9.27119L20.9064 9.66162ZM20.9152 9.66836C22.0972 10.5309 23.5894 11.6302 25.4863 11.5402L25.4626 11.0407C23.7682 11.1211 22.4152 10.144 21.2099 9.26447L20.9152 9.66836ZM25.5657 11.5232C25.5889 11.5141 25.6126 11.5058 25.6367 11.4982L25.487 11.0211C25.4517 11.0322 25.4171 11.0444 25.3832 11.0577L25.5657 11.5232ZM25.6367 11.4982C25.7637 11.4583 25.8879 11.4178 26.0092 11.3767L25.8488 10.9031C25.7311 10.943 25.6105 10.9823 25.4869 11.0211L25.6367 11.4982Z" fill="#4C6E14"/>
<path fill-rule="evenodd" clip-rule="evenodd" d="M36.6862 40.0751C36.0924 41.0065 34.856 41.2802 33.9246 40.6865L24.9997 34.9968L24.9997 22C24.9997 20.8954 25.8952 20 26.9997 20C28.1043 20 28.9997 20.8954 28.9997 22L28.9997 32.8032L36.0749 37.3135C37.0063 37.9073 37.28 39.1437 36.6862 40.0751Z" fill="white"/>
</svg>
