<svg width="22" height="20" viewBox="0 0 22 20" fill="none" xmlns="http://www.w3.org/2000/svg">
<g clip-path="url(#clip0_2428_135)">
<path d="M9.0957 13.9805H12.0792V18.4652H9.0957V13.9805Z" fill="#FFBE61" style="fill:#FFBE61;fill:color(display-p3 1.0000 0.7451 0.3804);fill-opacity:1;"/>
<path d="M7.60415 16.9713H13.5712C14.5688 16.9713 15.0677 17.4686 15.0677 18.4631C15.0677 19.4607 14.5688 19.9596 13.5712 19.9596H7.60415C6.6065 19.9596 6.10768 19.4607 6.10768 18.4631C6.10768 17.4717 6.6065 16.9745 7.60415 16.9713ZM16.5594 3.53132H19.5288C19.7247 3.53132 19.9187 3.5699 20.0997 3.64487C20.2807 3.71984 20.4452 3.82972 20.5837 3.96825C20.7222 4.10677 20.8321 4.27122 20.9071 4.45221C20.982 4.6332 21.0206 4.82718 21.0206 5.02308V8.02073C21.0206 8.81201 20.7063 9.57088 20.1468 10.1304C19.5872 10.6899 18.8284 11.0043 18.0371 11.0043H16.5594V3.53132ZM1.64651 3.53132H4.63003V10.9901H3.12415C2.33287 10.9901 1.574 10.6758 1.01448 10.1163C0.45496 9.55676 0.140625 8.79789 0.140625 8.00661V5.00896C0.14247 4.81306 0.182886 4.61944 0.259564 4.43916C0.336241 4.25887 0.44768 4.09546 0.587516 3.95824C0.727352 3.82103 0.892846 3.7127 1.07455 3.63945C1.25625 3.5662 1.4506 3.52945 1.64651 3.53132Z" fill="url(#paint0_linear_2428_135)" style=""/>
<path d="M6.10859 0.527404H15.0498C15.4447 0.524904 15.8363 0.600855 16.2017 0.750852C16.5671 0.900849 16.899 1.12191 17.1783 1.4012C17.4576 1.68049 17.6787 2.01246 17.8287 2.37785C17.9787 2.74325 18.0546 3.13478 18.0521 3.52976V8.03329C18.0521 10.0127 17.2658 11.9111 15.8661 13.3108C14.4664 14.7105 12.568 15.4968 10.5886 15.4968C8.60914 15.4968 6.71076 14.7105 5.31108 13.3108C3.91139 11.9111 3.12506 10.0127 3.12506 8.03329V3.52976C3.12258 3.13637 3.19792 2.74638 3.34674 2.38223C3.49557 2.01807 3.71494 1.68695 3.99223 1.4079C4.26953 1.12886 4.59927 0.90741 4.96248 0.756298C5.32569 0.605186 5.7152 0.527396 6.10859 0.527404Z" fill="url(#paint1_linear_2428_135)" style=""/>
<path opacity="0.5" d="M11.298 4.0433C11.3674 4.11239 11.4225 4.19452 11.4601 4.28497C11.4977 4.37542 11.517 4.47241 11.517 4.57036C11.517 4.66831 11.4977 4.7653 11.4601 4.85575C11.4225 4.9462 11.3674 5.02833 11.298 5.09742L9.1756 7.21507C9.10651 7.2845 9.02438 7.3396 8.93393 7.3772C8.84348 7.41479 8.74649 7.43415 8.64854 7.43415C8.55059 7.43415 8.4536 7.41479 8.36315 7.3772C8.2727 7.3396 8.19057 7.2845 8.12148 7.21507C7.98352 7.07432 7.90625 6.88509 7.90625 6.68801C7.90625 6.49092 7.98352 6.30169 8.12148 6.16095L10.2344 4.0433C10.3035 3.97387 10.3856 3.91877 10.4761 3.88117C10.5665 3.84357 10.6635 3.82422 10.7615 3.82422C10.8594 3.82422 10.9564 3.84357 11.0469 3.88117C11.1373 3.91877 11.2194 3.97387 11.2885 4.0433H11.298ZM13.8438 7.03624C13.9133 7.10533 13.9684 7.18746 14.006 7.27791C14.0436 7.36836 14.0629 7.46535 14.0629 7.5633C14.0629 7.66125 14.0436 7.75824 14.006 7.84869C13.9684 7.93914 13.9133 8.02127 13.8438 8.09036L10.6768 11.2621C10.5366 11.4012 10.3472 11.4793 10.1497 11.4793C9.95226 11.4793 9.76281 11.4012 9.62266 11.2621C9.55322 11.193 9.49813 11.1109 9.46053 11.0205C9.42293 10.93 9.40358 10.833 9.40358 10.7351C9.40358 10.6371 9.42293 10.5401 9.46053 10.4497C9.49813 10.3592 9.55322 10.2771 9.62266 10.208L12.7897 7.03624C12.8588 6.96681 12.9409 6.91171 13.0314 6.87411C13.1218 6.83651 13.2188 6.81716 13.3168 6.81716C13.4147 6.81716 13.5117 6.83651 13.6022 6.87411C13.6926 6.91171 13.7747 6.96681 13.8438 7.03624Z" fill="white" style="fill:white;fill-opacity:1;"/>
</g>
<defs>
<linearGradient id="paint0_linear_2428_135" x1="2" y1="2.5" x2="15.9454" y2="23.3765" gradientUnits="userSpaceOnUse">
<stop stop-color="#FFDC97" style="stop-color:#FFDC97;stop-color:color(display-p3 1.0000 0.8612 0.5917);stop-opacity:1;"/>
<stop offset="1" stop-color="#FFB800" style="stop-color:#FFB800;stop-color:color(display-p3 1.0000 0.7200 0.0000);stop-opacity:1;"/>
</linearGradient>
<linearGradient id="paint1_linear_2428_135" x1="4.5" y1="1" x2="16.5" y2="15" gradientUnits="userSpaceOnUse">
<stop offset="0.38" stop-color="#FFC047" style="stop-color:#FFC047;stop-color:color(display-p3 1.0000 0.7544 0.2778);stop-opacity:1;"/>
<stop offset="1" stop-color="#FF5520" style="stop-color:#FF5520;stop-color:color(display-p3 1.0000 0.3350 0.1250);stop-opacity:1;"/>
</linearGradient>
<clipPath id="clip0_2428_135">
<rect width="22" height="20" fill="white" style="fill:white;fill-opacity:1;"/>
</clipPath>
</defs>
</svg>
