<svg width="15" height="15" viewBox="0 0 15 15" fill="none" xmlns="http://www.w3.org/2000/svg">
<path d="M4.16663 1.66667C4.16663 0.746192 4.91281 0 5.83328 0H9.16658C10.087 0 10.8332 0.746192 10.8332 1.66667H4.16663Z" fill="url(#paint0_linear_2314_413)" style=""/>
<path d="M1.66665 3.33333H13.3332L12.8384 11.2495C12.7559 12.5701 12.7146 13.2303 12.4312 13.7312C12.1817 14.1721 11.8041 14.5269 11.3485 14.7484C10.8309 15 10.1694 15 8.84628 15H6.15358C4.83048 15 4.16893 15 3.65136 14.7484C3.19571 14.5269 2.81813 14.1721 2.56862 13.7312C2.28521 13.2303 2.24394 12.5701 2.16141 11.2495L1.66665 3.33333Z" fill="url(#paint1_linear_2314_413)" style=""/>
<path d="M4.0062 2.51582C3.99817 2.28584 4.17809 2.0929 4.40807 2.08486C4.63805 2.07683 4.83099 2.25676 4.83902 2.48674L5.15893 11.6478C5.16696 11.8778 4.98704 12.0707 4.75706 12.0788C4.52708 12.0868 4.33414 11.9069 4.32611 11.6769L4.0062 2.51582Z" fill="white" fill-opacity="0.48" style="fill:white;fill-opacity:0.48;"/>
<path d="M7.08326 2.5C7.08326 2.26988 7.26981 2.08333 7.49993 2.08333C7.73004 2.08333 7.91659 2.26988 7.91659 2.5V11.9167C7.91659 12.1468 7.73004 12.3333 7.49993 12.3333C7.26981 12.3333 7.08326 12.1468 7.08326 11.9167V2.5Z" fill="white" fill-opacity="0.48" style="fill:white;fill-opacity:0.48;"/>
<path d="M10.1607 2.48815C10.1688 2.25817 10.3617 2.07825 10.5917 2.08628C10.8217 2.09431 11.0016 2.28725 10.9936 2.51723L10.6736 11.6783C10.6656 11.9083 10.4727 12.0882 10.2427 12.0802C10.0127 12.0722 9.83279 11.8792 9.84082 11.6492L10.1607 2.48815Z" fill="white" fill-opacity="0.48" style="fill:white;fill-opacity:0.48;"/>
<path d="M0 2.5C0 2.03976 0.373092 1.66667 0.833325 1.66667H14.1665C14.6268 1.66667 14.9999 2.03976 14.9999 2.5C14.9999 2.96024 14.6268 3.33333 14.1665 3.33333H0.833326C0.373093 3.33333 0 2.96024 0 2.5Z" fill="url(#paint2_linear_2314_413)" style=""/>
<defs>
<linearGradient id="paint0_linear_2314_413" x1="4.71477e-07" y1="-3.75001" x2="16.3648" y2="-2.47152" gradientUnits="userSpaceOnUse">
<stop stop-color="#FFAF8F" style="stop-color:#FFAF8F;stop-color:color(display-p3 1.0000 0.6862 0.5594);stop-opacity:1;"/>
<stop offset="1" stop-color="#FFA6A6" style="stop-color:#FFA6A6;stop-color:color(display-p3 1.0000 0.6508 0.6508);stop-opacity:1;"/>
</linearGradient>
<linearGradient id="paint1_linear_2314_413" x1="7.49993" y1="0" x2="7.49993" y2="15" gradientUnits="userSpaceOnUse">
<stop stop-color="#FFABA0" style="stop-color:#FFABA0;stop-color:color(display-p3 1.0000 0.6721 0.6274);stop-opacity:1;"/>
<stop offset="1" stop-color="#FF9E7F" style="stop-color:#FF9E7F;stop-color:color(display-p3 1.0000 0.6177 0.4970);stop-opacity:1;"/>
</linearGradient>
<linearGradient id="paint2_linear_2314_413" x1="0" y1="2.5" x2="14.9999" y2="2.5" gradientUnits="userSpaceOnUse">
<stop stop-color="#FF9797" style="stop-color:#FF9797;stop-color:color(display-p3 1.0000 0.5911 0.5911);stop-opacity:1;"/>
<stop offset="1" stop-color="#FFA47E" style="stop-color:#FFA47E;stop-color:color(display-p3 1.0000 0.6447 0.4933);stop-opacity:1;"/>
</linearGradient>
</defs>
</svg>
