<svg width="18" height="18" viewBox="0 0 18 18" fill="none" xmlns="http://www.w3.org/2000/svg">
<path d="M2.08114 17.3519L5.9137 13.5193L4.4807 12.0863L0.648141 15.9189C0.250314 16.3167 0.246226 16.9609 0.642655 17.3574C1.03746 17.7522 1.68167 17.7513 2.08114 17.3519Z" fill="#959595" style="fill:#959595;fill:color(display-p3 0.5833 0.5833 0.5833);fill-opacity:1;"/>
<path d="M0.214129 8.8667C0.0630311 8.7156 -0.0096328 8.52506 0.00102344 8.2967C0.00513108 8.07488 0.0988961 7.86413 0.257687 7.70859C1.02878 6.9375 1.94877 6.46918 3.02414 6.31014C4.09952 6.15111 4.91908 6.35511 5.49423 6.93025L9.5871 2.83738C9.28491 2.53519 9.14446 2.15572 9.1609 1.69411C9.17238 1.25046 9.35829 0.827348 9.67587 0.516265C10.0017 0.190473 10.3921 0.0210006 10.8537 0.00130038C11.3088 -0.0151131 11.6932 0.123679 11.997 0.4275L17.5714 6.00188C17.8736 6.30408 18.014 6.68354 17.9976 7.14515C17.9779 7.60351 17.8084 7.99721 17.4826 8.323C17.1568 8.64879 16.7647 8.8199 16.3048 8.83796C15.8448 8.85603 15.4637 8.71396 15.1615 8.41176L11.0703 12.503C11.6438 13.0765 11.851 13.8993 11.6904 14.9731C11.5412 16.0223 11.0498 16.9979 10.2919 17.7428C10.138 17.9032 9.92561 17.9954 9.70379 17.9995C9.47544 18.0069 9.28489 17.9375 9.13379 17.7864C3.34467 11.9972 5.54863 14.2012 0.214129 8.8667Z" fill="#FCC63D" style="fill:#FCC63D;fill:color(display-p3 0.9875 0.7784 0.2407);fill-opacity:1;"/>
</svg>
