<svg width="26" height="12" viewBox="0 0 26 12" fill="none" xmlns="http://www.w3.org/2000/svg">
<path d="M0 6.77647C0 4.40448 0 3.21849 0.461619 2.31251C0.867671 1.51559 1.51559 0.867671 2.31251 0.461619C3.21849 0 4.40448 0 6.77647 0H25.7647V5.22353C25.7647 7.59552 25.7647 8.78151 25.3031 9.68749C24.897 10.4844 24.2491 11.1323 23.4522 11.5384C22.5462 12 21.3602 12 18.9882 12H0V6.77647Z" fill="url(#paint0_linear_1967_323)" style=""/>
<path fill-rule="evenodd" clip-rule="evenodd" d="M18.4558 8.87153C16.7108 8.87153 15.6859 8.27012 15.6859 5.84753C15.6859 3.43341 16.7108 2.82353 18.4558 2.82353C20.2092 2.82353 21.2257 3.43341 21.2257 5.84753C21.2257 8.27012 20.2092 8.87153 18.4558 8.87153ZM18.4558 7.48235C19.2605 7.48235 19.4553 7.10965 19.4553 5.84753C19.4553 4.56847 19.2605 4.18729 18.4558 4.18729C17.6511 4.18729 17.4647 4.56847 17.4647 5.84753C17.4647 7.10965 17.6511 7.48235 18.4558 7.48235ZM15.4063 8.78691H13.4157L12.2044 6.81326H11.8741V8.78691H10.1884V2.90832H12.5771C14.0764 2.90832 14.8557 3.47585 14.8557 4.87349C14.8557 5.8222 14.5423 6.37279 13.8308 6.63538L15.4063 8.78691ZM11.8741 4.19585V5.61044H12.2807C12.9668 5.61044 13.1955 5.42408 13.1955 4.87349C13.1955 4.33138 12.9668 4.19585 12.2807 4.19585H11.8741ZM4.58824 2.90832V8.78691H6.27388V7.18597H6.87529C8.63718 7.18597 9.30635 6.65232 9.30635 5.00055C9.30635 3.48432 8.73035 2.90832 6.87529 2.90832H4.58824ZM6.62965 5.84761H6.27388V4.20432H6.62965C7.31576 4.20432 7.58682 4.39067 7.58682 5.04291C7.58682 5.66126 7.33271 5.84761 6.62965 5.84761Z" fill="white" style="fill:white;fill-opacity:1;"/>
<defs>
<linearGradient id="paint0_linear_1967_323" x1="25.7647" y1="3.87097" x2="-0.239265" y2="7.89451" gradientUnits="userSpaceOnUse">
<stop stop-color="#2C80FF" style="stop-color:#2C80FF;stop-color:color(display-p3 0.1708 0.5025 1.0000);stop-opacity:1;"/>
<stop offset="1" stop-color="#AA3FFF" style="stop-color:#AA3FFF;stop-color:color(display-p3 0.6682 0.2458 1.0000);stop-opacity:1;"/>
</linearGradient>
</defs>
</svg>
