<svg width="97" height="84" viewBox="0 0 97 84" fill="none" xmlns="http://www.w3.org/2000/svg">
<circle cx="48.7794" cy="16.2677" r="16.2677" fill="#FFC66F"/>
<path d="M49.3296 42.4227C49.0226 43.19 47.9365 43.19 47.6295 42.4227L44.3962 34.3393C35.6261 36.0231 29 43.7367 29 52.998C29 63.4914 37.5066 71.998 48 71.998H49C59.4934 71.998 68 63.4914 68 52.998C68 43.7234 61.3547 36.0009 52.5658 34.332L49.3296 42.4227Z" fill="#FFC66F"/>
<g clip-path="url(#clip0_3557_375)">
<g opacity="0.3">
<circle cx="90.7324" cy="24.7324" r="13.7324" fill="#FFC66F"/>
<path d="M74 56.7718C74 47.6708 81.3778 40.293 90.4789 40.293C99.5799 40.293 106.958 47.6708 106.958 56.7718V59.5183C106.958 68.6193 99.5799 75.9972 90.4789 75.9972C81.3778 75.9972 74 68.6193 74 59.5183V56.7718Z" fill="#FFC66F"/>
</g>
</g>
<g clip-path="url(#clip1_3557_375)">
<g opacity="0.3">
<circle cx="13.7324" cy="13.7324" r="13.7324" transform="matrix(-1 0 0 1 20 11)" fill="#FFC66F"/>
<path d="M23.0007 56.7718C23.0007 47.6708 15.6229 40.293 6.52184 40.293C-2.57919 40.293 -9.95703 47.6708 -9.95703 56.7718V59.5183C-9.95703 68.6193 -2.57919 75.9972 6.52184 75.9972C15.6229 75.9972 23.0007 68.6193 23.0007 59.5183V56.7718Z" fill="#FFC66F"/>
</g>
</g>
<rect x="2" y="64" width="93" height="20" fill="#FFC66F"/>
<rect y="57" width="97" height="10" rx="4" fill="#FFD494"/>
<defs>
<clipPath id="clip0_3557_375">
<rect width="23" height="65" fill="white" transform="translate(72 11)"/>
</clipPath>
<clipPath id="clip1_3557_375">
<rect width="23" height="65" fill="white" transform="matrix(-1 0 0 1 25 11)"/>
</clipPath>
</defs>
</svg>
