<svg width="18" height="18" viewBox="0 0 18 18" fill="none" xmlns="http://www.w3.org/2000/svg" opacity="0.9">
<path d="M17.9677 9.00832C17.9677 10.0362 15.0782 10.4819 14.7075 11.3756C14.3233 12.3023 16.0367 14.6574 15.3385 15.3558C14.6401 16.0541 12.2846 14.3407 11.3581 14.7248C10.4643 15.0953 10.0186 17.9851 8.99089 17.9851C7.96276 17.9851 7.51719 15.0955 6.62359 14.7248C5.69696 14.3407 3.34149 16.0541 2.64317 15.3558C1.94509 14.6575 3.65825 12.3019 3.27418 11.3755C2.90324 10.4819 0.0136719 10.0362 0.0136719 9.00832C0.0136719 7.98019 2.90324 7.53469 3.27403 6.64102C3.65818 5.71438 1.94493 3.35891 2.64302 2.6606C3.34126 1.96244 5.69688 3.67568 6.62337 3.29161C7.51719 2.92082 7.96276 0.03125 8.99074 0.03125C10.0186 0.03125 10.4643 2.92082 11.358 3.29161C12.2847 3.67575 14.6399 1.96251 15.3382 2.6606C16.0365 3.35884 14.3231 5.71446 14.7072 6.64094C15.0782 7.53477 17.9677 7.98034 17.9677 9.00832Z" fill="#FFCA30" style="fill:#FFCA30;fill:color(display-p3 1.0000 0.7922 0.1882);fill-opacity:0.8;"/>
<path d="M4.54322 9.00405C4.54322 11.4897 6.56545 13.512 9.05118 13.512C11.5367 13.512 13.559 11.4897 13.559 9.00405C13.559 6.51824 11.5367 4.49594 9.05118 4.49594C6.56545 4.49594 4.54322 6.51824 4.54322 9.00405Z" fill="#FFEB33" style="fill:#FFEB33;fill:color(display-p3 1.0000 0.9200 0.2000);fill-opacity:1;"/>
<path d="M9.05118 13.8172C6.39718 13.8172 4.23798 11.658 4.23798 9.00405C4.23798 6.34997 6.39718 4.1907 9.05118 4.1907C11.7051 4.1907 13.8642 6.34997 13.8642 9.00405C13.8643 11.658 11.7052 13.8172 9.05118 13.8172ZM9.05118 4.80118C6.73379 4.80118 4.84846 6.68658 4.84846 9.00405C4.84846 11.3214 6.73379 13.2068 9.05118 13.2068C11.3685 13.2068 13.2537 11.3214 13.2537 9.00405C13.2538 6.68658 11.3686 4.80118 9.05118 4.80118Z" fill="#AA500F" style="fill:#AA500F;fill:color(display-p3 0.6676 0.3132 0.0601);fill-opacity:1;"/>
<path d="M8.84223 13.3793C6.31445 13.3793 4.25797 11.3228 4.25797 8.79508C4.25797 6.26723 6.31445 4.21067 8.84223 4.21067C11.3699 4.21067 13.4263 6.26723 13.4263 8.79508C13.4264 11.3228 11.3699 13.3793 8.84223 13.3793ZM8.84223 4.97377C6.73523 4.97377 5.02107 6.688 5.02107 8.79508C5.02107 10.902 6.73523 12.6162 8.84223 12.6162C10.9492 12.6162 12.6632 10.902 12.6632 8.79508C12.6633 6.68793 10.9492 4.97377 8.84223 4.97377Z" fill="#FC7600" style="fill:#FC7600;fill:color(display-p3 0.9882 0.4612 0.0000);fill-opacity:1;"/>
</svg>
