<svg xmlns="http://www.w3.org/2000/svg" width="62" height="64" viewBox="0 0 62 64" >
    <path  fill="#cac947"  stroke="#94a830"  stroke-width="2" d="M9.69903 16.5441L9.69904 16.5441C15.1386 12.256 22.5749 10.6165 30.6556 12.4278M9.69903 16.5441L30.7346 12.426C30.7107 12.4323 30.6778 12.4327 30.6556 12.4278M9.69903 16.5441C4.2573 20.8339 1 27.6285 1 35.7515C1 43.9993 4.36443 50.6793 9.83871 55.2638C15.2783 59.8194 22.6914 62.2221 30.7333 62.2221C38.7752 62.2221 46.1883 59.8194 51.628 55.2638C57.1023 50.6793 60.4666 43.9993 60.4666 35.7515C60.4666 27.6617 57.3425 20.6846 51.9525 16.2866C46.5415 11.8713 39.0599 10.2308 30.7347 12.426L9.69903 16.5441ZM30.6556 12.4278L30.4369 13.4035L30.6555 12.4278C30.6556 12.4278 30.6556 12.4278 30.6556 12.4278Z"/>
    <path  fill="#5DA500" id="tomatoLeaf" d="M31.0474 1.00026C31.636 4.90104 31.8717 6.55014 31.8867 8.48668L31.8865 8.89762C31.8781 9.83113 31.8152 10.5905 31.7151 11.2467C34.5308 9.66679 34.8669 7.5131 35.7324 4.99981C37.6643 7.60137 36.4576 10.859 35.4329 12.3428C35.1387 12.7688 34.7977 13.1233 34.4314 13.4181C34.7668 13.4652 35.098 13.4887 35.4241 13.4887C39.6895 13.4887 42.2085 9.77536 42.2324 9.73419C42.5641 9.16257 43.8946 7.76555 44.5204 7.23419C44.5204 8.73419 44.7694 9.87697 44.5204 10.5153C42.3877 15.9773 39.0597 17.1233 36.6437 17.1233C36.0822 17.1233 35.5362 17.0614 35.0161 16.9581C36.4905 18.12 37.4278 17.9542 38.1284 17.6562L38.3626 17.5493L38.6755 17.3975C38.8745 17.3043 39.0563 17.2347 39.2324 17.2347C40.2324 18.2347 35.2324 21.7342 31.2324 19.2342L30.4885 18.7756L29.7987 18.3639C29.1628 17.9918 28.6845 17.7348 28.3247 17.5586C27.0183 18.3405 25.7647 18.7344 24.5776 18.7344C20.6047 18.7344 18.8904 17.2721 18.7414 17.0183L18.7324 16.9996C18.4533 16.1525 17.2324 16.4691 17.2324 14.9877L17.4182 14.9948C18.4611 15.0693 20.3625 15.7056 24.5776 15.6861C25.0433 15.6861 25.5249 15.5851 25.9921 15.428C23.1052 14.9081 21.1457 12.0502 19.7315 10.2342C18.8587 9.1136 17.2328 5.99981 18.2324 4.99981C19.0738 6.96298 21.2321 8.23419 23.7321 9.73419C25.1318 10.574 26.8496 12.4058 29.2133 12.2901L29.2535 12.2734L29.5722 12.1711C30.2006 8.71139 29.7927 4.69908 29.1862 1.19631C29.5 0.49941 30.5 0.5 31.0474 1.00026Z" />
    <path fill-rule="evenodd" clip-rule="evenodd" d="M52.8847 31.3993C52.8763 31.2761 52.8485 31.1549 52.8023 31.0403C52.6977 30.7801 52.5035 30.5659 52.2549 30.4361C52.0063 30.3064 51.7195 30.2698 51.4462 30.3329C51.1729 30.3959 50.9312 30.5545 50.7645 30.78C50.5978 31.0056 50.5172 31.2832 50.5371 31.563C50.9728 37.8083 47.9206 43.6182 42.9417 46.0203C42.3565 46.3028 42.1124 47.0081 42.3933 47.5913C42.4604 47.7305 42.5543 47.8551 42.6696 47.958C42.7849 48.0609 42.9193 48.14 43.0652 48.191C43.2111 48.2419 43.3656 48.2636 43.5198 48.2548C43.6741 48.246 43.8251 48.207 43.9643 48.1398C46.9705 46.6893 49.3967 44.2606 50.9809 41.1159C52.4645 38.1712 53.1228 34.8113 52.8847 31.3993ZM39.074 49.8862C38.892 49.9616 38.697 50.0004 38.5 50.0004C38.303 50.0004 38.108 49.9616 37.926 49.8862C37.744 49.8108 37.5786 49.7004 37.4393 49.5611C37.3001 49.4218 37.1896 49.2564 37.1142 49.0744C37.0388 48.8924 37 48.6974 37 48.5004C37 48.3034 37.0388 48.1084 37.1142 47.9264C37.1896 47.7444 37.3001 47.579 37.4393 47.4398C37.5786 47.3005 37.744 47.19 37.926 47.1146C38.108 47.0392 38.303 47.0004 38.5 47.0004C38.697 47.0004 38.892 47.0392 39.074 47.1146C39.256 47.19 39.4214 47.3005 39.5607 47.4398C39.6999 47.579 39.8104 47.7444 39.8858 47.9264C39.9612 48.1084 40 48.3034 40 48.5004C40 48.6974 39.9612 48.8924 39.8858 49.0744C39.8104 49.2564 39.6999 49.4218 39.5607 49.5611C39.4214 49.7004 39.256 49.8108 39.074 49.8862Z" fill="white" style="fill:white;fill-opacity:0.3;"/>

    </svg>