<svg id="_1" xmlns="http://www.w3.org/2000/svg" viewBox="0 0 200 200"><style>.a{fill:#5B61FF;}.b{fill:#555555;} @media (prefers-color-scheme: dark){.a{ fill: #646cff;}.b{fill:#888888;}}</style><path class="a" d="M67 34V17H50v17H17v58h33v25h17V92h33V34H67zM50 75H33V50h17v25zm33.9 0H67V50h17v25h-.1z"/><path class="b" d="M41 125v16.1c0 8.9 6.8 16.3 15.5 16.9H83v17H58.3C39.9 175 25 160.1 25 141.7V125h16zm109-42h-16.8l-36.7 92h18.1l10-25h34.1l10 25h18.1L150 83zm-18.7 50l10.4-26 10.4 26h-20.8zm10.6-108c18.3 0 33.1 14.8 33.1 33.1V75h-17V58.7c0-9.2-7.5-16.7-16.7-16.7H117V25h24.9z"/></svg>
