<?xml version="1.0" encoding="UTF-8"?>
<svg version="1.1" xmlns="http://www.w3.org/2000/svg" width="273" height="273">
<path d="M0 0 C1.88346256 -0.00570962 3.76692166 -0.01267616 5.65037537 -0.02079773 C10.74345197 -0.03867955 15.83635581 -0.03757004 20.92945433 -0.03185534 C25.19117545 -0.02875607 29.45286374 -0.03486421 33.71458018 -0.04089409 C43.77377807 -0.05492158 53.832891 -0.05339301 63.89208984 -0.04199219 C74.24747621 -0.03051456 84.60260348 -0.04458481 94.95795572 -0.07138866 C103.86954228 -0.09358636 112.78104775 -0.10017382 121.69265997 -0.09431225 C127.00598904 -0.090951 132.31915208 -0.09330229 137.63245773 -0.11056328 C142.63128475 -0.12609513 147.62972968 -0.12200788 152.62854195 -0.10325813 C154.45537432 -0.09958939 156.28223541 -0.10263028 158.10904121 -0.11314392 C174.36797058 -0.19952053 188.16537206 2.59380456 200.52587891 14.02905273 C213.08433507 27.35016818 214.79020734 41.64164869 214.74243164 59.06567383 C214.74814126 60.94913639 214.7551078 62.83259549 214.76322937 64.71604919 C214.78111119 69.8091258 214.78000168 74.90202964 214.77428699 79.99512815 C214.77118771 84.25684928 214.77729585 88.51853757 214.78332573 92.78025401 C214.79735322 102.83945189 214.79582465 112.89856482 214.78442383 122.95776367 C214.7729462 133.31315004 214.78701645 143.66827731 214.8138203 154.02362955 C214.836018 162.93521611 214.84260546 171.84672158 214.83674389 180.7583338 C214.83338264 186.07166287 214.83573393 191.38482591 214.85299492 196.69813156 C214.86852677 201.69695858 214.86443952 206.69540351 214.84568977 211.69421577 C214.84202103 213.52104815 214.84506192 215.34790923 214.85557556 217.17471504 C214.94440737 233.89579404 211.7955071 247.40176479 200.15087891 260.15405273 C187.06114188 272.36331418 172.66772745 273.85469376 155.67675781 273.80810547 C153.79329525 273.81381508 151.90983615 273.82078163 150.02638245 273.8289032 C144.93330584 273.84678501 139.840402 273.84567551 134.74730349 273.83996081 C130.48558236 273.83686154 126.22389407 273.84296967 121.96217763 273.84899956 C111.90297975 273.86302705 101.84386682 273.86149848 91.78466797 273.85009766 C81.4292816 273.83862003 71.07415433 273.85269028 60.71880209 273.87949413 C51.80721554 273.90169183 42.89571006 273.90827928 33.98409784 273.90241772 C28.67076877 273.89905646 23.35760573 273.90140776 18.04430008 273.91866875 C13.04547306 273.9342006 8.04702813 273.93011335 3.04821587 273.9113636 C1.22138349 273.90769485 -0.60547759 273.91073575 -2.4322834 273.92124939 C-19.1533624 274.0100812 -32.65933315 270.86118093 -45.41162109 259.21655273 C-57.62088253 246.12681571 -59.11226212 231.73340128 -59.06567383 214.74243164 C-59.07138344 212.85896908 -59.07834999 210.97550998 -59.08647156 209.09205627 C-59.10435337 203.99897967 -59.10324387 198.90607583 -59.09752917 193.81297731 C-59.09442989 189.55125619 -59.10053803 185.2895679 -59.10656792 181.02785146 C-59.12059541 170.96865357 -59.11906684 160.90954065 -59.10766602 150.8503418 C-59.09618839 140.49495543 -59.11025864 130.13982816 -59.13706249 119.78447592 C-59.15926019 110.87288936 -59.16584764 101.96138389 -59.15998608 93.04977167 C-59.15662482 87.7364426 -59.15897612 82.42327956 -59.17623711 77.10997391 C-59.19176896 72.11114689 -59.18768171 67.11270196 -59.16893196 62.11388969 C-59.16526321 60.28705732 -59.16830411 58.46019623 -59.17881775 56.63339043 C-59.26519436 40.37446106 -56.47186927 26.57705958 -45.03662109 14.21655273 C-31.71550565 1.65809657 -17.42402514 -0.0477757 0 0 Z " fill="#0F95FD" transform="translate(58.66162109375,-0.404052734375)"/>
<path d="M0 0 C6.6 0 13.2 0 20 0 C20 4.29 20 8.58 20 13 C34.19 13 48.38 13 63 13 C63 19.6 63 26.2 63 33 C48.81 33 34.62 33 20 33 C20 39.27 20 45.54 20 52 C38.48 52 56.96 52 76 52 C76 59.26 76 66.52 76 74 C57.52 74 39.04 74 20 74 C20 85.22 20 96.44 20 108 C13.4 108 6.8 108 0 108 C0 96.78 0 85.56 0 74 C-18.48 74 -36.96 74 -56 74 C-56 66.74 -56 59.48 -56 52 C-37.52 52 -19.04 52 0 52 C0 45.73 0 39.46 0 33 C-13.2 33 -26.4 33 -40 33 C-40 26.4 -40 19.8 -40 13 C-26.8 13 -13.6 13 0 13 C0 8.71 0 4.42 0 0 Z " fill="#FCFDFE" transform="translate(169,129)"/>
<path d="M0 0 C31.68 0 63.36 0 96 0 C96 22 96 22 91.1875 27.8125 C89.15954682 29.25806662 87.0959145 30.65486084 85 32 C83.12841027 33.49933984 81.27373435 35.02006314 79.4375 36.5625 C78.54160156 37.28695312 77.64570313 38.01140625 76.72265625 38.7578125 C68.91919033 44.5745613 68.91919033 44.5745613 63 52 C63.54503174 52.22574707 64.09006348 52.45149414 64.65161133 52.68408203 C67.11458142 54.06420562 68.95163207 55.76958094 71.01631165 57.67581177 C79.66027534 65.32642953 87.6846986 65.38216206 98.8125 65.125 C100.4876311 65.12305312 102.1627738 65.12562806 103.83789062 65.1328125 C107.8965214 65.14886245 111.93818881 65.07272332 116 65 C116 71.27 116 77.54 116 84 C109.43911662 84.29974164 102.88232692 84.51578233 96.31616211 84.65917969 C94.08986909 84.71902368 91.8640374 84.80053832 89.6394043 84.90527344 C68.22848122 85.88702851 68.22848122 85.88702851 59.37890625 78.265625 C57.73539854 76.72309486 56.14678236 75.14771618 54.58206177 73.5255127 C51.96021309 70.99737914 49.00764396 69.04471489 46 67 C41.87138546 69.48115119 39.34348685 71.77283399 36.31816101 75.58221436 C31.80050603 80.84135073 27.66273457 83.26559336 20.70068359 83.97460938 C13.18620197 84.32950876 5.69921407 84.0486093 -1.8125 83.75 C-4.45105021 83.68972731 -7.08973295 83.63498854 -9.72851562 83.5859375 C-16.15564749 83.45450173 -22.5763493 83.24790696 -29 83 C-29 76.73 -29 70.46 -29 64 C-26.09574219 64.03222656 -23.19148438 64.06445312 -20.19921875 64.09765625 C-17.35261174 64.09824007 -14.50646698 64.08340739 -11.65991211 64.06713867 C-9.69795723 64.06407689 -7.7359065 64.0767743 -5.77416992 64.10620117 C7.72660251 64.56686629 7.72660251 64.56686629 19.4375 58.81640625 C20.99811836 57.24958326 22.52415391 55.64691902 24 54 C25.20057049 52.90117537 26.4114314 51.81338121 27.63671875 50.7421875 C28.65639588 49.78939294 29.67338671 48.83371433 30.6875 47.875 C31.79621462 46.84043767 32.90558598 45.80657868 34.015625 44.7734375 C34.79196289 44.04979004 34.79196289 44.04979004 35.58398438 43.31152344 C43.15794861 36.29646552 51.17313886 29.70873812 59 23 C29.795 22.505 29.795 22.505 0 22 C0 14.74 0 7.48 0 0 Z " fill="#FBFDFE" transform="translate(132,36)"/>
<path d="M0 0 C19.47 0 38.94 0 59 0 C59 35.31 59 70.62 59 107 C50.75 107 42.5 107 34 107 C34 79.28 34 51.56 34 23 C22.78 23 11.56 23 0 23 C0 15.41 0 7.82 0 0 Z " fill="#FAFDFE" transform="translate(22,100)"/>
<path d="M0 0 C4.26421817 3.22416496 7.85431792 6.81295376 9.5625 11.9375 C10.48869497 19.08913205 9.83792794 24.26500282 5.38671875 30.0546875 C0.90912857 34.67609749 -3.56866746 36.14764412 -9.9375 36.5 C-16.87015486 36.23077069 -21.02468232 33.35031768 -25.8125 28.5625 C-28.7664498 23.79073494 -30.31101863 18.50618128 -29.4375 12.9375 C-27.03831212 7.56707589 -24.13382053 2.08283735 -18.625 -0.51171875 C-12.48663351 -2.05727174 -6.01942573 -1.86054977 0 0 Z " fill="#FAFDFE" transform="translate(72.4375,36.0625)"/>
</svg>
